<?xml version="1.0" standalone="no"?>
<!DOCTYPE svg PUBLIC "-//W3C//DTD SVG 20010904//EN"
 "http://www.w3.org/TR/2001/REC-SVG-20010904/DTD/svg10.dtd">
<svg version="1.0" xmlns="http://www.w3.org/2000/svg"
 width="325.000000pt" height="260.000000pt" viewBox="0 0 325.000000 260.000000"
 preserveAspectRatio="xMidYMid meet">

<g transform="translate(0.000000,260.000000) scale(0.100000,-0.100000)"
fill="#000000" stroke="none">
<path d="M1421 2299 c-95 -48 -174 -212 -204 -423 l-12 -89 -73 -25 -72 -24 0
-438 0 -439 38 -10 c20 -6 203 -51 406 -101 l368 -92 120 4 120 3 34 37 c42
47 42 16 9 603 -32 567 -28 535 -67 535 l-30 0 6 -97 c3 -54 8 -143 11 -198 3
-55 8 -136 10 -180 34 -536 36 -587 20 -611 -8 -13 -22 -24 -30 -24 -12 0 -15
21 -17 115 -1 63 -2 127 -3 143 -3 39 -19 582 -18 615 0 18 -4 27 -14 27 -13
0 -15 -22 -9 -162 3 -90 8 -244 11 -343 3 -99 8 -228 11 -286 4 -82 2 -107 -8
-111 -7 -2 -48 -3 -91 -2 -86 2 -120 19 -112 58 2 12 6 125 9 251 9 345 16
567 22 693 l5 112 -35 0 c-35 0 -36 -1 -36 -37 0 -21 -7 -262 -17 -535 -11
-329 -21 -498 -28 -498 -5 0 -145 31 -310 68 l-300 68 -3 395 -2 396 142 46
c79 25 243 78 366 117 l222 71 0 35 c0 40 3 40 -98 3 -76 -27 -82 -26 -82 20
0 65 -28 180 -57 233 -49 90 -121 118 -202 77z m92 -50 c53 -29 91 -122 103
-253 l7 -74 -129 -42 c-71 -24 -149 -49 -173 -56 l-44 -14 7 70 c13 147 98
329 169 364 39 19 34 18 60 5z"/>
<path d="M1589 1503 c0 -38 -2 -88 -4 -113 -2 -25 -5 -157 -7 -295 l-3 -250
25 -11 c43 -20 95 -25 113 -12 20 15 24 60 32 368 3 118 8 252 11 298 4 67 3
82 -9 82 -15 0 -20 -74 -33 -497 -4 -116 -10 -217 -14 -223 -4 -7 -18 -8 -33
-4 -27 6 -27 7 -29 108 l-2 101 -3 -97 c-3 -75 -7 -98 -18 -98 -7 0 -15 4 -17
10 -1 5 0 103 4 217 14 423 14 483 1 483 -9 0 -13 -21 -14 -67z"/>
<path d="M1653 1380 c0 -41 2 -58 4 -37 2 20 2 54 0 75 -2 20 -4 3 -4 -38z"/>
<path d="M1644 1175 c0 -66 1 -92 3 -57 2 34 2 88 0 120 -2 31 -3 3 -3 -63z"/>
<path d="M1410 491 l0 -131 30 0 c28 0 30 3 30 35 0 19 5 35 11 35 5 0 17 -16
25 -35 10 -26 20 -35 37 -35 36 0 38 9 13 59 l-24 46 19 38 19 37 -24 0 c-16
0 -32 -11 -48 -32 l-23 -33 -5 70 c-5 68 -6 70 -32 73 l-28 3 0 -130z"/>
<path d="M1880 491 l0 -131 30 0 c29 0 29 1 32 62 2 50 7 63 20 66 14 3 17 -7
20 -60 3 -60 4 -63 31 -66 l27 -3 0 68 c0 88 -18 118 -66 110 -33 -6 -33 -5
-36 36 -3 37 -6 42 -30 45 l-28 3 0 -130z"/>
<path d="M820 485 l0 -125 70 0 c57 0 74 4 90 20 24 24 26 67 5 90 -12 13 -13
22 -3 48 22 57 -20 92 -109 92 l-53 0 0 -125z m98 76 c21 -13 10 -46 -16 -49
-19 -3 -22 1 -22 27 0 31 13 39 38 22z m10 -100 c8 -4 12 -19 10 -32 -2 -18
-10 -25 -30 -27 -26 -3 -28 -1 -28 32 0 37 17 47 48 27z"/>
<path d="M1713 598 c-12 -6 -27 -23 -33 -39 -17 -39 7 -74 66 -100 33 -14 45
-24 42 -36 -4 -18 -29 -21 -88 -12 -19 3 -26 -1 -28 -17 -2 -17 5 -23 43 -34
84 -23 149 23 131 93 -4 18 -22 34 -59 54 -28 15 -50 33 -47 38 3 6 26 9 52 9
38 -1 47 2 51 18 9 33 -78 51 -130 26z"/>
<path d="M1058 529 c-22 -12 -37 -65 -31 -106 7 -44 36 -68 85 -68 52 0 78 30
78 90 0 59 -29 95 -78 95 -20 0 -45 -5 -54 -11z m67 -79 c0 -34 -4 -45 -17
-48 -12 -2 -19 5 -24 22 -9 39 3 78 24 74 13 -3 17 -14 17 -48z"/>
<path d="M1248 530 c-38 -23 -45 -112 -11 -152 34 -39 110 -29 132 18 31 70
-3 144 -67 144 -20 0 -45 -5 -54 -10z m70 -83 c3 -42 1 -47 -17 -47 -24 0 -37
36 -27 76 5 17 12 24 24 22 13 -2 18 -15 20 -51z"/>
<path d="M2091 514 c-38 -48 -22 -133 29 -154 63 -26 115 15 115 92 0 40 -5
53 -24 69 -36 29 -94 25 -120 -7z m85 -38 c10 -41 1 -71 -21 -71 -15 0 -21 8
-23 33 -2 19 -1 40 2 48 9 22 35 16 42 -10z"/>
<path d="M2270 409 l0 -129 25 0 c21 0 26 6 31 41 5 28 11 39 20 35 22 -8 61
14 73 41 16 34 14 95 -4 120 -14 19 -24 22 -80 21 l-65 -1 0 -128z m95 40 c0
-34 -4 -44 -17 -47 -15 -3 -18 4 -18 41 0 24 3 47 7 51 16 16 28 -4 28 -45z"/>
</g>
</svg>
