<?xml version="1.0" standalone="no"?>
<!DOCTYPE svg PUBLIC "-//W3C//DTD SVG 20010904//EN"
 "http://www.w3.org/TR/2001/REC-SVG-20010904/DTD/svg10.dtd">
<svg version="1.0" xmlns="http://www.w3.org/2000/svg"
 width="730.000000pt" height="159.000000pt" viewBox="0 0 730.000000 159.000000"
 preserveAspectRatio="xMidYMid meet">

<g transform="translate(0.000000,159.000000) scale(0.100000,-0.100000)"
fill="#000000" stroke="none">
<path d="M320 795 c0 -303 1 -315 19 -315 11 0 31 14 45 31 l26 31 0 256 0
256 -27 28 c-15 15 -35 28 -45 28 -17 0 -18 -18 -18 -315z"/>
<path d="M806 1079 c-24 -29 -26 -37 -26 -135 l0 -104 -90 0 c-49 0 -90 -2
-90 -5 0 -17 33 -66 49 -75 11 -5 45 -10 75 -10 l56 0 0 -106 c0 -103 1 -106
29 -135 61 -61 61 -62 61 286 0 303 -1 315 -19 315 -11 0 -31 -14 -45 -31z"/>
<path d="M2142 978 c3 -113 7 -140 26 -180 30 -61 98 -122 161 -145 l51 -18 0
-77 c0 -64 3 -78 16 -78 46 0 84 56 84 124 0 33 4 37 50 57 67 29 135 105 155
172 9 32 15 92 15 164 0 121 -4 128 -51 103 -34 -19 -49 -64 -49 -150 0 -99
-21 -147 -82 -187 -87 -58 -211 -26 -258 67 -15 30 -20 59 -20 120 0 108 -28
160 -86 160 -15 0 -16 -13 -12 -132z"/>
<path d="M3067 1095 c-85 -32 -162 -111 -192 -195 -20 -56 -19 -155 2 -216 24
-70 120 -165 192 -189 71 -23 178 -17 241 14 61 31 116 85 148 146 23 43 27
62 27 140 0 75 -4 97 -24 135 -32 62 -86 117 -146 148 -62 32 -187 40 -248 17z
m219 -110 c81 -47 126 -151 104 -236 -28 -108 -111 -174 -215 -174 -181 2
-284 196 -183 345 66 97 193 124 294 65z"/>
<path d="M3590 1104 c0 -24 144 -544 156 -562 52 -80 186 -80 238 0 8 13 44
138 81 278 36 140 68 263 71 273 8 26 -49 23 -80 -5 -22 -19 -36 -61 -85 -248
-70 -264 -67 -258 -92 -265 -44 -14 -54 6 -114 237 -62 238 -74 272 -104 288
-21 11 -71 14 -71 4z"/>
<path d="M4300 1094 c0 -8 13 -29 29 -45 l29 -29 212 0 212 0 29 29 c60 60 58
61 -241 61 -239 0 -270 -2 -270 -16z"/>
<path d="M5070 1094 c-14 -9 -34 -28 -45 -42 -19 -25 -20 -45 -23 -299 -3
-263 -2 -273 16 -273 11 0 31 12 46 26 l26 27 0 223 c0 285 -12 267 177 262
l135 -3 29 -33 c32 -36 37 -76 14 -109 -8 -12 -44 -38 -80 -58 -71 -39 -85
-57 -85 -106 0 -25 17 -54 71 -126 40 -52 82 -96 94 -99 12 -3 40 -4 63 -2
l42 3 -85 107 c-47 59 -85 111 -85 115 0 4 25 21 57 38 39 20 65 42 85 75 26
40 29 52 26 111 -3 54 -9 73 -31 103 -51 66 -85 76 -264 76 -126 0 -163 -4
-183 -16z"/>
<path d="M5795 1098 c-65 -36 -94 -99 -75 -166 5 -21 20 -48 32 -59 13 -12
112 -67 221 -123 187 -96 197 -103 197 -131 0 -18 -7 -32 -19 -39 -12 -6 -92
-10 -191 -10 l-172 0 -29 -29 c-59 -59 -53 -61 187 -61 140 0 223 4 237 11 88
46 111 147 50 219 -17 21 -90 63 -217 127 -105 52 -194 101 -198 107 -12 18
-9 44 8 60 13 13 45 16 190 16 l176 0 29 29 c59 59 53 61 -188 61 -140 0 -225
-5 -238 -12z"/>
<path d="M6440 1105 c0 -17 33 -66 49 -75 12 -6 104 -10 226 -10 l207 0 29 29
c60 60 58 61 -241 61 -148 0 -270 -2 -270 -5z"/>
<path d="M4353 820 c-49 -30 -68 -73 -68 -160 0 -87 19 -130 68 -160 29 -18
52 -20 260 -20 252 0 257 2 198 61 l-29 29 -185 0 c-216 0 -217 0 -217 92 0
78 14 88 124 88 83 0 89 1 117 29 55 55 45 61 -103 61 -114 0 -138 -3 -165
-20z"/>
<path d="M6496 821 c-53 -35 -66 -67 -66 -161 0 -94 13 -126 66 -161 26 -17
50 -19 257 -19 252 0 257 2 198 61 l-29 29 -179 0 c-218 0 -223 2 -223 90 0
79 15 90 128 90 79 0 85 2 113 29 55 55 45 61 -103 61 -113 0 -137 -3 -162
-19z"/>
</g>
</svg>
